<svg xmlns="http://www.w3.org/2000/svg" xmlns:xlink="http://www.w3.org/1999/xlink" viewBox="0 0 127.55 88.92"><defs><style>.cls-1{fill:none;}.cls-2{fill:#333;}.cls-3{clip-path:url(#clip-path);}.cls-4{fill:#fff;}.cls-5{font-size:22.46px;font-family:Raleway-Regular, Raleway;}.cls-6{letter-spacing:-0.02em;}.cls-7{letter-spacing:-0.01em;}.cls-8{letter-spacing:-0.01em;}</style><clipPath id="clip-path"><circle class="cls-1" cx="63.49" cy="30" r="30"/></clipPath></defs><title>Fichier 4</title><g id="Calque_2" data-name="Calque 2"><g id="OBJECTS"><circle class="cls-2" cx="63.49" cy="30" r="30"/><g class="cls-3"><path class="cls-4" d="M61.58,13.33h0a1,1,0,0,0-1,1V29.46a1.07,1.07,0,0,1-.84,1.07,1,1,0,0,1-1.18-1V14.3a1,1,0,0,0-1-1h-.1a1,1,0,0,0-1,1V29.46a1.07,1.07,0,0,1-.84,1.07,1,1,0,0,1-1.19-1V14.3a1,1,0,0,0-1-1h-.09a1,1,0,0,0-1,1V29.56a1.06,1.06,0,0,1-.84,1.06,1,1,0,0,1-1.18-1V14.3a1,1,0,0,0-1-1h0a1,1,0,0,0-1,.94c-.12,4.19-.57,21,.07,22.17,1.26,2.26,3,2.44,4.25,4.9s1.46,7.3,1.09,12.72c-.73,10.4-3.52,22.41-2.46,24.71,1.32,2.85,3.42,3,4,3s2.74-.17,4.05-3c1.07-2.3-1.72-14.31-2.45-24.71-.37-5.42-.14-10.27,1.09-12.72s3-2.64,4.25-4.9c.64-1.16.19-18,.07-22.17A1,1,0,0,0,61.58,13.33Z"/><path class="cls-4" d="M77.51,12.07a1.05,1.05,0,0,0-1.81-.75,22.72,22.72,0,0,0-5.07,9c-1.81,5.7-2.28,22-1.11,25,1.06,2.68,2,1.66,2.81,2.88,1.22,2,.81,4.29.44,9.72C72,68.23,69.33,76.47,70.39,78.77c1.32,2.85,3.42,3,4,3s2.74-.17,4-3c1.06-2.3-2-27.31-1.58-33.28C77.11,42.94,77.7,19.26,77.51,12.07Z"/></g><text class="cls-5" transform="translate(0 83.91)">CHE<tspan class="cls-6" x="45.67" y="0">F</tspan><tspan x="58.41" y="0"> </tspan><tspan class="cls-7" x="64.14" y="0">C</tspan><tspan x="79.39" y="0">OO</tspan><tspan class="cls-8" x="113.13" y="0">K</tspan></text></g></g></svg>